<svg width="80" height="80" viewBox="0 0 80 80" fill="none" xmlns="http://www.w3.org/2000/svg">
<rect width="80" height="80" rx="40" fill="#0F2728"/>
<path d="M62.4324 20.7287H17.567C14.5157 20.7287 12.0334 23.2115 12.0334 26.2629V50.8482C12.0334 53.8995 14.5156 56.3823 17.567 56.3823H34.5988L32.1171 61.9069H27.523C27.1462 61.9069 26.8409 62.2123 26.8409 62.589C26.8409 62.9658 27.1463 63.271 27.523 63.271H52.4768C52.8536 63.271 53.1589 62.9658 53.1589 62.589C53.1589 62.2122 52.8536 61.9069 52.4768 61.9069H47.8829L45.4013 56.3823H62.4324C65.4838 56.3823 67.9665 53.8995 67.9665 50.8482V26.263C67.9667 23.2115 65.4839 20.7287 62.4324 20.7287ZM46.3874 61.907H33.6126L36.072 56.432H43.928L46.3874 61.907ZM66.6024 50.8483C66.6024 53.1478 64.7319 55.0183 62.4324 55.0183H17.567C15.2681 55.0183 13.3976 53.1478 13.3976 50.8483V26.263C13.3976 23.9635 15.2681 22.093 17.567 22.093H62.4324C64.7319 22.093 66.6024 23.9635 66.6024 26.263V50.8483Z" fill="#62D781"/>
<path d="M53.0524 33.2167H50.0655C49.6887 33.2167 49.3834 33.5221 49.3834 33.8988V50.1101C49.3834 50.4869 49.6888 50.7922 50.0655 50.7922H53.0524C53.4291 50.7922 53.7344 50.4868 53.7344 50.1101V33.8988C53.7344 33.5221 53.429 33.2167 53.0524 33.2167ZM52.3702 49.4281H50.7476V34.581H52.3702V49.4281Z" fill="#62D781"/>
<path d="M45.3737 42.2723H42.4982C42.1214 42.2723 41.8161 42.5776 41.8161 42.9544V50.1101C41.8161 50.4869 42.1215 50.7922 42.4982 50.7922H45.3737C45.7505 50.7922 46.0558 50.4868 46.0558 50.1101V42.9544C46.0559 42.5776 45.7505 42.2723 45.3737 42.2723ZM44.6917 49.4281H43.1804V43.6366H44.6917V49.4281Z" fill="#62D781"/>
<path d="M37.918 36.8985H35.0809C34.7041 36.8985 34.3988 37.2039 34.3988 37.5806V50.1101C34.3988 50.4869 34.7042 50.7922 35.0809 50.7922H37.918C38.2948 50.7922 38.6001 50.4868 38.6001 50.1101V37.5807C38.6001 37.2039 38.2947 36.8985 37.918 36.8985ZM37.2358 49.4281H35.7629V38.2627H37.2358V49.4281Z" fill="#62D781"/>
<path d="M30.6833 41.2139H27.4763C27.0995 41.2139 26.7943 41.5193 26.7943 41.896V50.1101C26.7943 50.4869 27.0997 50.7922 27.4763 50.7922H30.6833C31.0601 50.7922 31.3654 50.4868 31.3654 50.1101V41.896C31.3654 41.5193 31.0601 41.2139 30.6833 41.2139ZM30.0012 49.4281H28.1585V42.5782H30.0012V49.4281Z" fill="#62D781"/>
<path d="M51.2609 28.8011L51.4531 30.9599C51.4852 31.3235 51.8016 31.6101 52.1927 31.5791C52.5683 31.5456 52.8455 31.2146 52.8119 30.8395L52.465 26.9414C52.4327 26.5822 52.1089 26.3195 51.7855 26.3195H48.2163C47.8395 26.3195 47.5342 26.6249 47.5342 27.0016C47.5342 27.3782 47.8395 27.6836 48.2163 27.6836H50.3996L44.7259 35.0534C44.1474 34.8185 43.5215 34.8415 42.9354 35.1605L38.4426 30.4501C38.6026 30.1504 38.7019 29.8134 38.7019 29.4503C38.7019 28.2746 37.7507 27.3186 36.5821 27.3186C35.1829 27.3186 34.0932 28.697 34.5851 30.1372L29.3718 34.5853C27.9189 33.809 26.2653 34.8998 26.2653 36.4605C26.2653 37.6362 27.2163 38.5922 28.3852 38.5922C29.913 38.5922 30.958 37.0023 30.3098 35.5787L35.4121 31.2253C36.0012 31.6191 36.7579 31.7057 37.4529 31.3885L42.0041 36.1599C41.3697 37.581 42.4166 39.1596 43.9359 39.1596C45.5447 39.1596 46.6054 37.3994 45.7555 35.9521L51.2609 28.8011ZM28.3852 37.2279C27.9684 37.2279 27.6295 36.8837 27.6295 36.4605C27.6295 36.0374 27.9684 35.6932 28.3852 35.6932C28.8019 35.6932 29.1411 36.0374 29.1411 36.4605C29.1411 36.8837 28.8019 37.2279 28.3852 37.2279ZM36.582 30.2176C36.1652 30.2176 35.8263 29.8734 35.8263 29.4503C35.8263 29.0271 36.1652 28.6829 36.582 28.6829C36.9987 28.6829 37.3377 29.0271 37.3377 29.4503C37.3377 29.8734 36.9987 30.2176 36.582 30.2176ZM43.9359 37.7955C43.5192 37.7955 43.1803 37.4512 43.1803 37.0281C43.1803 36.605 43.5192 36.2607 43.9359 36.2607C44.3527 36.2607 44.6916 36.605 44.6916 37.0281C44.6916 37.4512 44.3527 37.7955 43.9359 37.7955Z" fill="#62D781"/>
</svg>
