<svg width="52" height="52" viewBox="0 0 52 52" fill="none" xmlns="http://www.w3.org/2000/svg">
<path d="M36.5002 25.9996C34.968 25.9996 30.7415 25.4218 26.959 27.0828C22.8501 28.8873 19.8746 31.6862 18.5781 33.427" stroke="#EEEBF0" stroke-width="1.5" stroke-linecap="round" stroke-linejoin="round"/>
<path d="M22.0625 16.2637C23.706 17.7803 27.2917 21.6422 28.625 25.4755C29.9584 29.3088 30.4525 34.0221 30.7569 35.3638" stroke="#EEEBF0" stroke-width="1.5" stroke-linecap="round" stroke-linejoin="round"/>
<path d="M15.5811 24.6891C17.5644 24.8087 22.8149 24.9165 26.1749 23.4816C29.5349 22.0466 32.4263 19.4074 33.4179 18.5703" stroke="#EEEBF0" stroke-width="1.5" stroke-linecap="round" stroke-linejoin="round"/>
<path d="M26 36.5C31.799 36.5 36.5 31.799 36.5 26C36.5 20.201 31.799 15.5 26 15.5C20.201 15.5 15.5 20.201 15.5 26C15.5 31.799 20.201 36.5 26 36.5Z" stroke="#EEEBF0" stroke-width="1.5" stroke-linecap="round" stroke-linejoin="round"/>
</svg>
