<svg width="80" height="80" viewBox="0 0 80 80" fill="none" xmlns="http://www.w3.org/2000/svg">
<rect width="80" height="80" rx="40" fill="#0F2728"/>
<path d="M53.9084 34.717C53.7856 34.4628 53.7329 34.1799 53.7562 33.8987L54.573 24.0267C54.6648 22.9157 54.2534 21.8387 53.4442 21.0718C52.6352 20.305 51.5367 19.9522 50.4331 20.1033C49.5836 20.2198 48.7614 20.4971 48.0163 20.9149C47.9575 20.8343 47.8969 20.7547 47.8321 20.6774C46.2948 18.8432 43.5521 18.6014 41.7181 20.1382L35.0745 25.6983V24.4544C35.0745 24.3617 35.1021 24.2723 35.1545 24.1957L36.5324 22.1794C36.7968 21.7925 36.6975 21.2646 36.3106 21.0002C35.9235 20.7356 35.3957 20.8352 35.1314 21.2221L33.7535 23.2384C33.5077 23.5981 33.3778 24.0186 33.3778 24.4544V27.1184L28.0906 31.5433V23.5525C28.0906 22.638 28.3633 21.7554 28.8794 21.0003L33.7319 13.8988C34.1303 13.3158 34.7319 12.9228 35.4259 12.7922C36.1199 12.6617 36.823 12.8091 37.4061 13.2076C37.9891 13.6059 38.3821 14.2076 38.5127 14.9016C38.6432 15.5954 38.4958 16.2988 38.0974 16.8817L37.207 18.1848C36.9427 18.5718 37.0421 19.0996 37.4289 19.364C37.8155 19.6283 38.3437 19.5289 38.6079 19.1421L39.4983 17.839C40.1523 16.8818 40.3945 15.7272 40.1801 14.5879C39.9658 13.4486 39.3206 12.4607 38.3633 11.8066C37.4062 11.1526 36.2517 10.9104 35.1121 11.1248C33.9728 11.3391 32.985 11.9844 32.331 12.9416L27.4784 20.0431C26.7689 21.0816 26.3938 22.2951 26.3938 23.5526V32.9635L23.8493 35.093C22.0206 36.6236 21.0404 38.9568 21.2274 41.3342L21.7675 48.2011C21.8025 48.6457 22.174 48.9831 22.6124 48.983C22.6347 48.983 22.6572 48.9821 22.6798 48.9804C23.1469 48.9438 23.4959 48.5352 23.4591 48.0682L22.9189 41.2013C22.7749 39.3701 23.5299 37.5731 24.9385 36.3943L42.8075 21.4391C43.9247 20.5029 45.5955 20.6501 46.5317 21.7673C47.4679 22.8846 47.3207 24.5552 46.2035 25.4915L36.9019 33.2866C36.324 33.4263 35.7709 33.7042 35.2915 34.1213L30.745 38.0786C30.3917 38.3863 30.3546 38.9222 30.6621 39.2755C30.9698 39.6289 31.5055 39.6659 31.8591 39.3584L36.4056 35.4011C37.1963 34.7126 38.35 34.706 39.1487 35.3854L46.025 41.2342C46.5628 41.6917 46.8903 42.3313 46.9471 43.0351C47.004 43.7391 46.7833 44.4229 46.3258 44.9606C45.9913 45.3538 45.5492 45.6366 45.0591 45.7812L40.2481 41.6891C38.8052 40.4617 36.7206 40.4737 35.2916 41.7174L30.7452 45.6748C30.3918 45.9824 30.3547 46.5183 30.6622 46.8717C30.9699 47.2252 31.5057 47.2621 31.8593 46.9546L36.4057 42.9972C37.1964 42.3088 38.3501 42.302 39.1488 42.9815L46.0251 48.8303C46.563 49.2879 46.8904 49.9274 46.9472 50.6313C47.0041 51.3352 46.7834 52.019 46.3259 52.5568C45.8684 53.0946 45.2288 53.4221 44.525 53.4789C43.8202 53.5356 43.1372 53.315 42.5995 52.8575L38.3431 49.2371C38.0062 48.9506 37.5061 48.9708 37.1935 49.2833L35.9303 50.5465C35.599 50.878 35.599 51.4151 35.9303 51.7464C36.2616 52.0776 36.7988 52.0776 37.13 51.7464L37.8398 51.0366L41.5 54.1499C42.2919 54.8237 43.2766 55.1845 44.3051 55.1845C44.4233 55.1845 44.5423 55.1796 44.6614 55.17C45.8169 55.0768 46.867 54.5391 47.6182 53.6559C48.3695 52.7728 48.7318 51.6501 48.6385 50.4945C48.5452 49.3389 48.0075 48.2888 47.1244 47.5376L46.4919 46.9997C46.9146 46.7541 47.2968 46.4376 47.6182 46.0597C49.1689 44.2368 48.9474 41.4921 47.1244 39.9413L44.0757 37.3482L45.9183 27.9439L47.2935 26.7914C48.182 26.0469 48.7275 25.0008 48.8293 23.8458C48.8707 23.3757 48.8353 22.9109 48.7301 22.4646C49.3208 22.1122 49.9797 21.8777 50.6637 21.784C51.2553 21.7026 51.8437 21.8921 52.2774 22.303C52.7109 22.714 52.9314 23.291 52.8822 23.8864L52.0654 33.7584C52.0171 34.3414 52.1264 34.9283 52.3811 35.4552L53.8918 38.5796C55.7952 42.5165 55.8596 47.0623 54.0684 51.0515L53.097 53.2148C52.9051 53.6423 53.096 54.1444 53.5235 54.3362C53.6364 54.3869 53.7543 54.4109 53.8705 54.4109C54.1943 54.4109 54.5036 54.2245 54.6449 53.9098L55.6163 51.7465C57.6135 47.2988 57.5417 42.2304 55.4195 37.841L53.9084 34.717ZM42.5934 36.0881L40.2479 34.093C39.9528 33.842 39.6306 33.6437 39.293 33.4963L43.8492 29.6781L42.5934 36.0881Z" fill="#62D781"/>
<path d="M52.7295 56.1042C52.302 55.9123 51.8 56.1029 51.6081 56.5306L49.4353 61.3693C49.3862 61.4785 49.3608 61.597 49.3608 61.7168V68.1516C49.3608 68.6203 49.7406 69 50.2092 69C50.6779 69 51.0576 68.6203 51.0576 68.1516V61.8985L53.156 57.2256C53.3479 56.7983 53.1569 56.2961 52.7295 56.1042Z" fill="#62D781"/>
<path d="M47.804 16.2797C48.2726 16.2797 48.6524 15.9 48.6524 15.4313V11.8484C48.6524 11.3797 48.2726 11 47.804 11C47.3353 11 46.9556 11.3797 46.9556 11.8484V15.4313C46.9556 15.8998 47.3354 16.2797 47.804 16.2797Z" fill="#62D781"/>
<path d="M51.4258 17.1236C51.5566 17.1964 51.6981 17.2308 51.8379 17.2308C52.1357 17.2308 52.4248 17.0737 52.58 16.7951L54.3232 13.6648C54.5512 13.2555 54.4041 12.7387 53.9948 12.5108C53.5855 12.2829 53.0687 12.4299 52.8408 12.8392L51.0975 15.9694C50.8695 16.3789 51.0165 16.8955 51.4258 17.1236Z" fill="#62D781"/>
<path d="M58.6679 16.843C58.4212 16.4447 57.8984 16.3219 57.4999 16.5685L54.4539 18.455C54.0556 18.7017 53.9326 19.2246 54.1793 19.6229C54.3398 19.8821 54.6173 20.0247 54.9014 20.0247C55.0539 20.0247 55.2081 19.9836 55.3473 19.8974L58.3933 18.011C58.7917 17.7644 58.9147 17.2414 58.6679 16.843Z" fill="#62D781"/>
<path d="M26.215 57.4455C24.8844 55.7734 24.0347 53.767 23.7578 51.6435C23.6972 51.179 23.272 50.8523 22.8068 50.9118C22.3423 50.9724 22.0147 51.3982 22.0753 51.8628C22.392 54.2925 23.3644 56.5883 24.8872 58.5019L28.3875 62.901V68.0964C28.3875 68.5651 28.7674 68.9448 29.2359 68.9448C29.7045 68.9448 30.0843 68.5651 30.0843 68.0964V62.6046C30.0843 62.4128 30.0193 62.2265 29.8998 62.0764L26.215 57.4455Z" fill="#62D781"/>
</svg>
