<svg width="80" height="80" viewBox="0 0 80 80" fill="none" xmlns="http://www.w3.org/2000/svg">
<rect width="80" height="80" rx="40" fill="#0F2728"/>
<path d="M50.3537 43.4862L51.5073 42.3326C51.5077 42.3322 51.508 42.3318 51.5084 42.3315C51.5088 42.3311 51.5091 42.3307 51.5095 42.3304L55.579 38.2608C55.5792 38.2605 55.5795 38.2604 55.5798 38.2602C55.5801 38.26 55.5802 38.2597 55.5804 38.2594L59.6507 34.1892C59.6508 34.1891 59.6509 34.189 59.651 34.1889C59.6511 34.1888 59.6512 34.1887 59.6512 34.1886L61.887 31.9529C62.6047 31.2352 63 30.2809 63 29.2659C63 28.2509 62.6046 27.2966 61.887 26.579L55.4212 20.1131C54.7035 19.3955 53.7492 19.0001 52.7342 19.0001C51.7191 19.0001 50.7649 19.3954 50.0472 20.1131L38.5138 31.6463L30.6855 23.8179C29.375 22.5074 27.7326 21.5745 25.9356 21.1202L17.7145 19.042C17.2445 18.9232 16.7462 19.0604 16.4034 19.4034C16.0604 19.7463 15.9232 20.2443 16.042 20.7145L18.1203 28.9356C18.5745 30.7325 19.5074 32.375 20.8179 33.6855L28.6463 41.5138L17.1129 53.0471C16.3953 53.7649 16 54.7191 16 55.7341C16 56.7492 16.3953 57.7033 17.113 58.421L23.5789 64.8869C24.2967 65.6047 25.2509 66 26.266 66C27.281 66 28.2352 65.6047 28.9529 64.887L35.2572 58.5827C35.2583 58.5818 35.2592 58.5808 35.2602 58.5799C35.2612 58.579 35.2621 58.5779 35.263 58.5769L40.4862 53.3538L51.0887 63.9564C52.449 65.3167 54.2357 65.9969 56.0225 65.9969C57.8093 65.9969 59.5961 65.3168 60.9563 63.9564C63.6769 61.2359 63.6769 56.8093 60.9563 54.0888L50.3537 43.4862ZM20.7901 28.2607L19.2777 22.2778L25.2607 23.7903C26.5762 24.1228 27.7786 24.8058 28.7381 25.7652L29.8237 26.8508L23.8507 32.8239L22.7651 31.7383C21.8056 30.7787 21.1227 29.5763 20.7901 28.2607ZM25.7979 34.7711L31.771 28.798L36.5665 33.5936L30.5935 39.5666L25.7979 34.7711ZM26.266 63.2461C25.9866 63.2461 25.724 63.1372 25.5263 62.9397L19.0603 56.4738C18.8628 56.2762 18.754 56.0135 18.754 55.7341C18.754 55.4546 18.8628 55.1919 19.0603 54.9943L51.9944 22.0603C52.1919 21.8628 52.4547 21.7539 52.7342 21.7539C53.0136 21.7539 53.2762 21.8628 53.4739 22.0603L59.9398 28.5263C60.1373 28.7238 60.2462 28.9865 60.2462 29.2659C60.2462 29.5453 60.1373 29.8081 59.9398 30.0057L58.6775 31.268L54.4771 27.0676C53.9396 26.5298 53.0677 26.5298 52.5298 27.0676C51.9921 27.6052 51.9921 28.4771 52.5298 29.0148L56.7302 33.2153L54.6062 35.3393L52.4414 33.1746C51.9038 32.6368 51.0319 32.637 50.4941 33.1746C49.9564 33.7124 49.9564 34.5842 50.4941 35.1219L52.6589 37.2866L50.5349 39.4106L46.3346 35.2101C45.7968 34.6724 44.925 34.6724 44.3873 35.2101C43.8495 35.7478 43.8495 36.6197 44.3873 37.1574L48.5876 41.3578L46.4636 43.4818L44.2989 41.3171C43.7612 40.7794 42.8893 40.7794 42.3516 41.3171C41.8138 41.8548 41.8138 42.7266 42.3516 43.2644L44.5162 45.4291L42.4291 47.5162L38.2287 43.3159C37.691 42.7781 36.8192 42.7781 36.2814 43.3159C35.7437 43.8535 35.7437 44.7254 36.2814 45.2632L40.4818 49.4635L38.3578 51.5875L36.1931 49.4229C35.6555 48.8852 34.7836 48.8852 34.2458 49.4229C33.7081 49.9605 33.7081 50.8324 34.2458 51.3701L36.4105 53.5348L34.2865 55.6588L30.0862 51.4585C29.5486 50.9209 28.6767 50.9209 28.1389 51.4585C27.6012 51.9962 27.6012 52.8681 28.1389 53.4058L32.3392 57.6061L30.2152 59.7301L28.0505 57.5654C27.5129 57.0278 26.641 57.0278 26.1033 57.5654C25.5655 58.1031 25.5655 58.975 26.1033 59.5127L28.2679 61.6774L27.0056 62.9397C26.8081 63.1373 26.5453 63.2461 26.266 63.2461ZM43.3971 50.4428C43.3991 50.441 43.4009 50.4391 43.4028 50.4372C43.4048 50.4353 43.4066 50.4335 43.4084 50.4315L47.4357 46.4042C47.4363 46.4037 47.4368 46.4032 47.4373 46.4026C47.4378 46.4021 47.4383 46.4016 47.4389 46.4011L48.4065 45.4335L54.2413 51.2682L48.2683 57.2413L42.4335 51.4065L43.3971 50.4428ZM59.009 62.009C57.3623 63.6558 54.6827 63.6558 53.036 62.009L50.2155 59.1885L56.1886 53.2154L59.0091 56.0359C60.6559 57.6828 60.6559 60.3623 59.009 62.009Z" fill="#62D781"/>
</svg>
