<svg width="199" height="174" viewBox="0 0 199 174" fill="none" xmlns="http://www.w3.org/2000/svg">
<g clip-path="url(#clip0_18_2)">
<path d="M99.5 172.003C98.4931 172.003 97.4861 171.741 96.5852 171.223C95.6048 170.66 72.3357 157.158 48.7336 136.812C34.7426 124.755 23.5756 112.793 15.543 101.266C5.14438 86.3455 -0.0832994 71.9962 -1.99744e-05 58.6116C0.0984012 43.0403 5.67812 28.396 15.7171 17.3758C25.9226 6.17024 39.5426 0 54.0673 0C72.684 0 89.7033 10.4224 99.5 26.9319C109.297 10.4224 126.316 0 144.933 0C158.655 0 171.749 5.56873 181.803 15.6772C192.834 26.773 199.102 42.4464 199 58.6873C198.917 72.0454 193.591 86.3758 183.169 101.27C175.11 112.793 163.958 124.748 150.024 136.801C126.505 157.142 103.403 170.644 102.43 171.212C101.525 171.738 100.511 172.003 99.5 172.003Z" fill="#0F2728"/>
<path d="M76.3824 59.0996C75.5193 59.8033 74.4556 60.0946 73.4297 59.9924C72.4039 59.8903 71.4159 59.3947 70.7118 58.5322L62.876 48.9533C61.4678 47.232 61.7214 44.6974 63.4438 43.2863L71.2001 49.343L76.3786 59.0958L76.3824 59.0996Z" fill="#62D781"/>
<path d="M62.3763 75.3707C62.0356 75.3367 61.6911 75.2572 61.3542 75.1324L49.7746 70.7743C47.6926 69.9912 46.6403 67.6683 47.4239 65.5876C48.2074 63.5069 50.5317 62.4552 52.6137 63.2383L64.1933 67.5965C66.2753 68.3796 67.3276 70.7024 66.5441 72.7831C65.8854 74.5271 64.1441 75.5485 62.3725 75.3707H62.3763Z" fill="#6CD37C"/>
<path d="M90.7064 52.2219C88.9349 52.0441 87.432 50.6973 87.133 48.855L85.1608 36.6469C84.805 34.4527 86.3002 32.3834 88.4958 32.0277C90.6913 31.6721 92.7619 33.1665 93.1178 35.3607L95.09 47.5687C95.4458 49.7629 93.9506 51.8323 91.755 52.1879C91.3992 52.2446 91.0471 52.256 90.7064 52.2219Z" fill="#4CA15C"/>
<path d="M166.105 168.783C161.392 172.634 154.517 172.369 150.115 168.166L140.939 159.401L131.12 172.487C129.212 175.203 124.635 174.034 124.249 170.754L115.444 112.074C115.244 110.735 115.762 109.392 116.811 108.533L146.75 131.701L166.097 168.783H166.105Z" fill="#4EA15C"/>
<path d="M176.692 135.257L161.907 142.275L168.679 153.004C171.927 158.149 170.817 164.936 166.105 168.787L116.818 108.537C117.867 107.682 119.286 107.44 120.558 107.902L176.359 128.19C179.505 129.219 179.728 133.944 176.692 135.265V135.257Z" fill="#62D781"/>
<path d="M76.3824 59.0996L63.4476 43.2863C65.1699 41.8789 67.7062 42.1324 69.1181 43.8537L76.954 53.4325C78.3622 55.1539 78.1085 57.6885 76.3862 59.0996H76.3824Z" fill="#4EA15C"/>
<path d="M101.075 89.285L88.8894 99.2383C88.0264 99.942 86.9627 100.23 85.9368 100.127C84.911 100.025 83.923 99.5296 83.2189 98.6709C81.8107 96.9496 82.0681 94.4149 83.7867 93.0038L95.972 83.0467L101.643 83.6141L101.075 89.2812V89.285Z" fill="#66D57F"/>
<path d="M80.7129 120.643C74.9098 120.061 69.6784 117.253 65.9876 112.74C62.2968 108.227 60.5858 102.549 61.1687 96.7453C61.7555 90.942 64.5605 85.7213 69.0727 82.0328L77.8095 74.8941C79.5319 73.4868 82.0719 73.7402 83.4801 75.4615C84.8882 77.1829 84.6346 79.7213 82.9122 81.1286L74.1755 88.2673C71.3288 90.594 69.5573 93.889 69.1863 97.5511C68.8191 101.209 69.8979 104.796 72.226 107.641C77.0335 113.52 85.7286 114.39 91.6112 109.585L100.348 102.45C102.07 101.043 104.61 101.296 106.019 103.018C107.427 104.739 107.173 107.277 105.451 108.685L96.7139 115.82C92.1979 119.508 86.516 121.218 80.7129 120.636V120.643Z" fill="#60D27E"/>
<path d="M135.874 75.5788C135.287 81.3821 132.482 86.6028 127.97 90.2913L119.233 97.43C118.37 98.1337 117.307 98.425 116.281 98.319C115.255 98.2131 114.271 97.7213 113.567 96.8587C112.158 95.1374 112.412 92.6028 114.134 91.1917L122.871 84.0529C125.714 81.7263 127.489 78.4313 127.857 74.7692C128.224 71.1072 127.145 67.5246 124.817 64.6797C120.009 58.8007 111.314 57.9306 105.432 62.7352L96.695 69.8739C94.9726 71.2812 92.4364 71.0277 91.0244 69.3064C89.6125 67.5851 89.8699 65.0466 91.5922 63.6393L100.329 56.5044C109.649 48.8852 123.435 50.2698 131.055 59.5876C134.746 64.1009 136.457 69.7793 135.874 75.5788Z" fill="#4AA358"/>
<path d="M113.252 79.3354L101.075 89.285L95.972 83.0466L108.15 73.0971C109.872 71.6898 112.412 71.9432 113.82 73.6645C115.228 75.3859 114.975 77.9205 113.252 79.3316V79.3354Z" fill="#4CA15C"/>
</g>
<defs>
<clipPath id="clip0_18_2">
<rect width="199" height="174" fill="white"/>
</clipPath>
</defs>
</svg>
