<svg width="57" height="46" viewBox="0 0 57 46" fill="none" xmlns="http://www.w3.org/2000/svg">
<g clip-path="url(#clip0_18_441)">
<path fill-rule="evenodd" clip-rule="evenodd" d="M43.0314 36.0092C43.0314 36.0092 44.0144 34.7624 44.8111 32.826C45.348 31.515 45.768 29.51 46.4002 28.3232C47.2748 26.6738 48.3314 26.0269 48.3314 26.0269C48.3314 26.0269 47.9806 27.1622 47.6905 29.0087C47.5823 29.6985 47.5649 30.6196 47.487 31.335C47.3831 32.3161 46.8072 33.4343 46.8072 33.4343C46.8072 33.4343 47.4437 33.053 48.4613 32.616C49.4615 32.1919 50.8254 31.7206 51.8603 31.1808C53.6832 30.2297 55.0948 28.9059 55.0948 28.9059C55.0948 28.9059 53.8737 32.5132 50.5916 34.3726C46.6643 36.6004 43.0358 36.0092 43.0358 36.0092" fill="white"/>
<path fill-rule="evenodd" clip-rule="evenodd" d="M35.2591 39.8178C35.2591 39.8178 36.7486 38.7724 38.2641 36.9173C39.2903 35.6578 40.4118 33.6013 41.4986 32.5088C43.0011 30.9922 44.3738 30.6281 44.3738 30.6281C44.3738 30.6281 43.6117 31.7548 42.6807 33.6784C42.3343 34.3939 42.0052 35.4007 41.6848 36.1547C41.2432 37.1915 40.2429 38.224 40.2429 38.224C40.2429 38.224 41.07 38.0141 42.3213 37.8684C43.5554 37.7313 45.2051 37.6585 46.5128 37.4057C48.8206 36.9602 50.8081 35.9705 50.8081 35.9705C50.8081 35.9705 48.2707 39.5179 44.062 40.4818C39.0262 41.6386 35.2548 39.8092 35.2548 39.8092" fill="white"/>
<path fill-rule="evenodd" clip-rule="evenodd" d="M25.9063 42.534C25.9063 42.534 27.6903 41.7885 29.6821 40.1991C31.033 39.1237 32.6655 37.2472 34.0424 36.3604C35.9476 35.1265 37.4501 35.058 37.4501 35.058C37.4501 35.058 36.4022 36.0562 34.9993 37.8385C34.4754 38.5025 33.9082 39.4708 33.4015 40.1819C32.7087 41.1588 31.4357 42.0028 31.4357 42.0028C31.4357 42.0028 32.3364 41.9728 33.67 42.1013C34.9777 42.2341 36.7053 42.5297 38.1169 42.5597C40.611 42.6154 42.8929 42.0327 42.8929 42.0327C42.8929 42.0327 39.4505 45.1388 34.8737 45.1945C29.3963 45.2631 25.902 42.5254 25.902 42.5254" fill="white"/>
<path fill-rule="evenodd" clip-rule="evenodd" d="M49.0934 31.3264C49.0934 31.3264 49.206 30.2082 49.1281 28.6359C49.0675 27.432 48.786 25.924 48.9072 24.6601C49.1411 22.1024 50.1067 20.3245 50.1067 20.3245C50.1067 20.3245 50.1543 21.6226 50.4314 23.4177C50.5353 24.086 50.8471 25.3842 50.9164 25.9583C51.016 26.7551 50.9986 27.6205 50.9986 27.6205C50.9986 27.6205 51.5702 26.8794 52.4968 26.1125C53.1463 25.577 54.2115 24.6987 54.7701 24.1289C56.3938 22.4794 56.9957 21.5112 56.9957 21.5112C56.9957 21.5112 56.7965 24.3859 54.9433 26.6909C52.8605 29.2785 49.0978 31.3307 49.0978 31.3307" fill="white"/>
<path fill-rule="evenodd" clip-rule="evenodd" d="M6.66819 25.9797C7.63377 26.9994 8.15337 27.6377 8.15337 27.6377C8.15337 27.6377 8.30492 26.0397 8.83751 24.0518C9.20123 22.698 9.92867 21.1685 10.1798 19.819C10.5479 17.8268 10.2491 16.2845 10.2491 16.2845C10.2491 16.2845 8.9804 18.5637 8.04079 20.5516C7.35665 21.9954 7.05356 23.7048 7.05356 23.7048C7.05356 23.7048 6.34344 22.1625 5.45146 20.7744C4.9665 20.0246 4.21741 19.2149 3.81039 18.4651C3.14357 17.2484 2.96171 16.0917 2.96171 16.0917C2.96171 16.0917 2.0351 18.9578 3.1046 21.3313C3.89266 23.0879 5.55105 24.793 6.67685 25.984" fill="white"/>
<path fill-rule="evenodd" clip-rule="evenodd" d="M6.62489 20.1745C6.62489 20.1745 7.14016 19.0435 8.05811 17.5697C8.61235 16.6786 9.51299 15.6589 9.97197 14.6907C10.9592 12.6086 11.0891 10.762 11.0891 10.762C11.0891 10.762 10.6301 11.4518 9.76413 12.3601C9.26185 12.887 8.43482 13.4911 7.95852 14.0781C7.13149 15.0977 6.63788 16.2673 6.63788 16.2673C6.63788 16.2673 5.88013 14.5022 5.54239 12.8999C5.1397 10.9891 5.14836 9.18115 5.14836 9.18115C5.14836 9.18115 3.451 11.3447 3.81039 14.0181C3.99658 15.4062 4.99248 17.2912 5.62466 18.3752C6.26983 19.4933 6.62056 20.1703 6.62056 20.1703" fill="white"/>
<path fill-rule="evenodd" clip-rule="evenodd" d="M8.55606 11.5889C9.47835 10.8735 10.8683 10.0081 11.7386 9.06123C13.003 7.69027 13.4923 5.94658 13.4923 5.94658C13.4923 5.94658 12.3015 7.07763 10.9765 7.93876C9.90702 8.63281 8.64699 9.08694 8.64699 9.08694C8.64699 9.08694 8.71627 8.56426 8.80287 7.49748C8.84184 7.00051 9.01504 5.21826 9.14927 4.67416C9.59526 2.88334 10.3963 2.06934 10.3963 2.06934C10.3963 2.06934 7.8113 3.98011 7.03191 6.46498C6.10962 9.41254 6.97129 13.0199 6.97129 13.0199C6.97129 13.0199 7.50387 12.4072 8.55173 11.5932" fill="white"/>
<path fill-rule="evenodd" clip-rule="evenodd" d="M13.4446 4.52416C14.0248 4.03147 14.8995 2.51485 15.3758 1.94076C16.376 0.736882 16.7311 0.535522 16.7311 0.535522C16.7311 0.535522 14.0595 0.963948 12.4098 2.3649C10.747 3.77442 10.1149 6.15217 10.1149 6.15217C10.1149 6.15217 11.9594 5.78801 13.449 4.52844" fill="white"/>
<path fill-rule="evenodd" clip-rule="evenodd" d="M53.6876 22.8908C52.8692 23.8633 52.4362 24.4674 52.4362 24.4674C52.4362 24.4674 52.211 23.0279 51.6178 21.2628C51.2108 20.0589 50.4704 18.7136 50.1673 17.5055C49.7256 15.7232 49.9118 14.3094 49.9118 14.3094C49.9118 14.3094 51.1848 16.3016 52.1461 18.0496C52.8432 19.3177 53.2156 20.8472 53.2156 20.8472C53.2156 20.8472 53.7742 19.4163 54.5059 18.1096C54.9043 17.4027 55.5365 16.6315 55.8655 15.9332C56.4025 14.7935 56.5021 13.7396 56.5021 13.7396C56.5021 13.7396 57.498 16.2845 56.6623 18.4866C56.0431 20.1189 54.6402 21.7512 53.6876 22.8865" fill="white"/>
<path fill-rule="evenodd" clip-rule="evenodd" d="M53.4754 17.2398C53.4754 17.2398 52.8649 16.2544 51.8387 14.9948C51.2195 14.2365 50.2669 13.3968 49.7256 12.5528C48.5652 10.7406 48.2231 9.044 48.2231 9.044C48.2231 9.044 48.7297 9.63095 49.6433 10.3721C50.1716 10.8048 51.0116 11.2632 51.5182 11.7517C52.4059 12.5999 52.9991 13.6282 52.9991 13.6282C52.9991 13.6282 53.4927 11.9059 53.6096 10.3807C53.7525 8.56417 53.5317 6.89331 53.5317 6.89331C53.5317 6.89331 55.3589 8.69698 55.3459 11.2161C55.3373 12.5228 54.6402 14.3822 54.1855 15.4618C53.7179 16.5714 53.4754 17.2398 53.4754 17.2398Z" fill="white"/>
<path fill-rule="evenodd" clip-rule="evenodd" d="M50.7821 9.94809C49.8772 9.24547 48.5132 8.39719 47.6559 7.46751C46.4132 6.12225 45.9369 4.40855 45.9369 4.40855C45.9369 4.40855 47.106 5.51817 48.405 6.36217C49.4572 7.04337 50.6912 7.48893 50.6912 7.48893C50.6912 7.48893 50.6219 6.97482 50.5397 5.92946C50.5007 5.44106 50.3318 3.6888 50.2019 3.15755C49.7646 1.39672 48.9765 0.599854 48.9765 0.599854C48.9765 0.599854 51.5139 2.47636 52.276 4.91409C53.181 7.81025 52.3366 11.349 52.3366 11.349C52.3366 11.349 51.8127 10.7492 50.7865 9.94809" fill="white"/>
<path fill-rule="evenodd" clip-rule="evenodd" d="M46.5387 3.71873C45.9975 3.26031 45.1835 1.84651 44.7418 1.31098C43.8065 0.192791 43.4731 0 43.4731 0C43.4731 0 45.9629 0.398435 47.5 1.70513C49.0458 3.0204 49.639 5.23107 49.639 5.23107C49.639 5.23107 47.92 4.89261 46.5344 3.71873" fill="white"/>
<path d="M37.0907 16.5328C37.0907 16.5328 35.9779 16.6571 35.9779 17.681C35.9779 18.495 36.5884 18.962 37.0084 19.0049C37.4717 19.052 38.3507 18.7435 38.3507 17.7239C38.3507 16.5328 37.0907 16.5286 37.0907 16.5286" fill="white"/>
<path d="M47.8291 14.7592C47.1926 11.1347 45.2874 7.99865 45.1272 7.75445C42.5032 3.76581 38.3377 1.94072 37.9134 1.78649C37.4891 1.62797 36.1165 0.732561 35.4843 0.47979C34.8564 0.231304 33.1244 -0.017183 32.8257 0.00423826C32.5356 0.0256595 30.4182 -0.00433024 30.1064 -0.00433024C29.786 -0.00861449 28.3008 -0.00433024 28.0021 0.0256595C26.0232 0.265578 24.1094 1.06673 23.5681 1.22525C23.0226 1.37948 22.8277 1.37091 22.6588 1.43946C18.7835 3.10604 16.5189 5.89508 16.5189 5.89508C16.5189 5.89508 14.9774 8.01579 14.8692 8.20001C12.5137 12.1929 12.4574 15.8131 12.4054 16.5029C12.3621 17.1969 12.4444 18.8078 12.4444 19.0306C12.4444 19.2534 12.5093 21.1085 12.5526 21.7382C12.5916 22.3637 12.7648 22.6765 13.1069 22.9721C13.4446 23.2591 14.1851 23.8889 14.1851 23.8889C14.1851 23.8889 14.3453 23.7047 14.4189 23.5291C14.4838 23.3534 14.5574 22.955 14.5141 22.7493C14.4622 22.548 14.4882 22.2995 14.4882 22.2995L14.7783 22.2609L14.6743 21.9696C14.5791 21.8111 14.6743 21.6311 14.644 21.524C14.6267 21.4126 14.4016 20.8257 14.2717 20.1402C14.1331 19.4419 14.2717 19.1163 14.8562 18.735C15.4451 18.3537 16.5232 18.4051 16.5232 18.4051C16.5232 18.4051 16.5492 18.3365 16.5492 18.178C16.5492 18.0195 16.35 17.7753 16.2158 17.7496C16.0773 17.7325 16.0296 17.7068 15.8348 17.6125C15.6313 17.5268 15.7871 17.3897 15.7871 17.3897C15.9907 17.3897 15.9474 17.2398 15.9474 17.2398L15.969 16.8542C15.969 16.8542 15.7265 16.8756 15.5187 16.7899C14.748 16.4472 14.5791 15.1748 14.6007 14.7763C14.6267 14.3693 14.8779 13.114 14.9211 12.8741C15.523 9.7252 16.9433 7.9858 17.3719 7.58308C17.8006 7.17607 18.3375 7.53595 18.6146 7.62592C18.8788 7.72446 19.0779 7.72446 19.0779 7.72446C19.0779 7.72446 19.1256 7.54452 19.3334 7.386C19.5326 7.23605 20.1431 7.03898 20.3726 6.9233C20.5934 6.81191 20.5285 6.6791 20.3943 6.56343C20.2644 6.45204 19.9916 6.23354 19.7621 6.15642C19.5456 6.08787 19.6105 5.93793 19.6971 5.80083L20.4852 4.95255C21.6889 3.80008 22.5852 3.44021 23.2434 3.12746C23.8972 2.81042 24.7156 2.57479 24.7156 2.57479L24.7242 3.31168L24.3908 4.02287C23.7154 5.5652 22.4034 7.07754 22.4034 7.07754L21.6586 7.09896C21.5504 7.09896 21.0048 7.02612 20.5328 7.26604C20.0608 7.51453 20.1951 8.07148 20.1951 8.07148L20.4202 8.27713L20.312 8.43136C20.312 8.43136 20.9182 8.40994 21.1866 8.51704C21.4508 8.63272 21.6759 9.19396 21.6543 9.41245C21.6326 9.6438 21.4248 10.6849 21.0654 11.8245C20.6974 12.9684 20.6237 14.0823 20.6454 14.6692C20.667 15.2476 20.6887 15.6032 20.5068 16.053C20.3293 16.4943 19.6755 16.7 19.1775 16.6743C18.6753 16.6443 17.7789 16.6614 17.4672 16.7085C17.1511 16.7514 17.3979 16.8456 17.3979 16.8456L17.4196 17.0727L17.6187 17.4283L17.4152 17.8267L17.307 18.0067C17.7486 18.0324 17.9348 18.4179 17.9348 18.4179C17.9348 18.4179 18.1816 18.3665 18.4977 18.4179C18.8095 18.4608 19.8054 18.7693 20.1171 18.9963C20.4332 19.2234 20.5891 19.5319 20.5588 19.6989C20.5371 19.8489 20.5848 20.4144 20.5545 20.6329C20.3769 22.4837 20.9572 23.3577 21.204 23.8075C21.4508 24.2531 21.6326 25.0157 21.6933 25.6669C21.7625 26.3138 21.3122 26.4038 20.6584 26.8236C20.0046 27.2478 18.199 28.1389 18.199 28.1389C18.199 28.1389 17.8396 28.1389 17.0602 27.2221C16.2678 26.2967 15.7309 24.6215 15.7135 24.4159C15.6919 24.2145 15.7309 23.9061 15.3065 24.146C14.8778 24.3902 15.0857 24.7801 15.168 25.1528C15.2546 25.5384 15.168 25.6712 15.0294 25.714C14.8908 25.7569 14.4016 25.08 14.1721 24.93C13.9426 24.7715 14.0248 25.1099 14.0378 25.2856C14.1028 26.498 14.8389 27.4063 14.9991 27.5905C18.6579 31.8448 24.0791 33.9226 25.1399 34.3039C26.1964 34.6895 26.8892 34.6424 27.2356 34.6467L28.8248 34.6553L28.8377 34.681L29.4353 34.7795L29.8336 34.5824L29.8943 34.1369C29.7687 33.7641 29.5609 33.1772 29.2881 32.436C28.5996 30.5638 29.3747 27.9418 29.4959 27.5605C29.851 26.2239 30.5957 24.5316 31.938 22.3637C33.3583 20.0674 33.8302 17.981 33.3409 16.1644C33.0898 15.2133 32.6092 14.4979 32.1545 13.9966C32.1762 14.0052 32.2021 14.0137 32.2238 14.0223C32.7997 14.2408 33.5921 14.5407 34.93 14.3436C35.389 14.2751 35.874 14.1808 36.3416 14.0866C39.1042 13.5339 41.7108 13.0112 43.2003 16.9827C43.5207 17.8267 43.6853 18.7435 43.8585 19.7075C44.1789 21.464 44.5816 23.4734 45.9845 25.1828L46.6037 23.8804C46.8245 23.4091 46.9241 23.1221 46.9544 23.0492C47.9373 20.9199 47.8464 19.3605 47.7382 19.0692C47.6299 18.7821 47.8507 18.6022 48.0499 18.1352C48.2578 17.6639 47.8724 14.9306 47.8377 14.7549M24.3129 7.60878C24.4515 6.98328 25.3781 4.31848 27.2356 2.29203C27.3959 2.11637 27.8895 1.7822 28.3181 1.7565C28.7425 1.73936 28.8074 2.3006 28.894 2.47625C28.985 2.65191 29.1279 3.41879 29.0239 3.68441C28.9373 3.95003 28.8204 4.43844 28.7728 4.82402C28.7252 5.20103 28.8681 5.44524 28.972 5.71514C29.0889 5.98077 29.2015 6.31922 29.3747 6.29352C29.5608 6.2721 29.786 6.07074 29.9679 5.93793C30.1541 5.8094 30.5784 5.49665 30.626 4.97825C30.6737 4.45986 30.5611 4.17281 30.4961 3.88577C30.4268 3.59016 30.4268 3.36737 30.4095 3.0075C30.3879 2.65619 30.5134 2.52338 30.5134 2.52338C30.5134 2.52338 30.5134 2.25775 30.7256 1.945C30.9291 1.62797 31.2279 1.58941 31.3794 1.62797C31.5353 1.67938 32.0982 1.83361 32.8863 3.15316C32.9859 3.3331 33.4925 4.27564 34.0467 5.68515C34.142 5.92936 34.3109 6.75622 34.6096 7.22749C34.9041 7.69875 35.1682 8.32425 35.1682 8.32425C35.1682 8.32425 34.0424 8.78695 32.8906 8.94118C32.6092 8.97974 31.7388 9.07828 31.3578 8.84265C30.9811 8.62415 30.9551 8.25999 30.9811 8.13146L30.8685 7.57022C30.8685 7.43741 30.6477 6.76907 30.3359 6.45632C30.0155 6.13929 30.0155 6.31494 30.0891 6.47774C30.1541 6.63626 30.284 7.53167 29.9462 7.5488L29.7903 7.39029C29.6778 7.26176 29.4786 7.26176 29.2707 7.23605C29.0716 7.21463 29.0239 7.36887 29.0413 7.54452C29.0629 7.72446 29.0326 8.37566 29.0326 8.37566C29.0326 8.37566 29.0326 9.06971 28.106 9.08685C27.1923 9.10827 26.4043 8.72269 25.6379 8.56417C24.8715 8.40565 24.5077 8.23 24.5077 8.23C24.5077 8.23 24.1743 8.22143 24.3129 7.60878ZM34.2546 4.01001C34.2546 4.01001 35.3067 5.20103 35.6402 6.20355C35.9779 7.21035 36.2031 7.43741 36.2031 7.43741C36.2031 7.43741 35.7138 7.53167 35.0383 6.17784C34.7006 5.5095 34.575 4.83687 34.4581 4.56268C34.3455 4.30134 34.2589 4.01001 34.2589 4.01001M21.5027 23.6362C21.3295 23.2977 21.2689 22.805 21.1304 22.4708C20.9918 22.1367 20.8792 21.6397 20.8792 21.6397C20.8792 21.6397 20.7623 21.1642 21.1174 21.1642C21.4724 21.1642 21.4594 21.267 21.6196 21.4855C21.7712 21.704 21.8708 21.9867 21.9531 22.0638V22.4923L21.8491 22.8907C21.9141 23.0321 21.8665 22.9892 21.9531 23.2292C22.0267 23.4691 22.1089 23.7604 22.1869 23.966C22.2691 24.1674 22.3168 24.4373 22.3038 24.6173C22.2821 24.7886 22.2258 25.05 22.2042 25.3242C22.1825 25.5984 22.083 25.9154 22.083 25.9154C22.083 25.9154 21.9704 25.7397 21.9704 25.4398C21.9704 25.1399 21.9271 24.8486 21.8058 24.613C21.6889 24.3731 21.6889 23.9746 21.5071 23.6404M24.9018 32.346C24.6896 32.3075 24.2869 32.2861 23.75 32.1061C23.2131 31.9262 22.2562 31.3307 21.2646 30.6752C20.2687 30.0197 19.6149 29.527 19.6149 29.527C19.6149 29.527 19.1472 29.407 19.5499 29.15C19.9526 28.8972 21.533 28.0532 21.7928 27.929C22.0483 27.8133 22.5333 27.5563 23.1048 28.306C23.6807 29.0643 24.4731 30.7609 24.7069 31.2835C24.9494 31.7977 25.2049 32.3118 25.2049 32.3118C25.2049 32.3118 25.1269 32.3889 24.9018 32.346ZM28.3138 27.145C27.5691 29.3256 27.7812 32.1233 27.8592 32.9116C27.8332 32.9201 27.8029 32.9287 27.7769 32.933C27.5171 32.963 26.8633 32.7316 26.1228 31.2493C25.941 30.8637 25.4127 29.7412 24.9624 28.6359C24.4991 27.522 24.222 27.1921 24.222 27.1921C24.222 27.1921 24.1094 27.0507 24.3086 26.9522C24.5034 26.8493 25.5643 26.4038 25.7981 26.2838C26.0449 26.1682 26.5212 25.9454 26.7983 25.9325C27.0798 25.9154 27.6686 25.9325 27.9544 25.9582C28.2315 25.9754 28.2272 25.8426 28.4784 26.0653C28.4827 26.0653 28.5779 26.121 28.6775 26.1767C28.5476 26.5023 28.4264 26.8279 28.3138 27.1535M28.6645 23.9746C28.3181 23.9875 27.9198 24.0689 27.4435 24.1289C26.4866 24.2402 26.1488 24.583 25.5513 24.7972C24.9537 25.0114 24.3562 25.2856 24.0704 25.2856L23.5378 25.277C23.5378 25.277 23.4166 25.0028 23.2391 24.6087C23.0572 24.2103 22.884 23.6019 22.5852 22.805C22.2951 22.0124 22.1522 21.9782 22.1696 21.4983C22.1955 21.0271 22.1349 20.7272 22.1609 20.4144C22.1739 20.0974 22.2778 19.9817 22.1782 19.7761C22.0743 19.579 22.0353 19.459 21.9574 19.4076L21.8188 19.2105L21.8621 18.9321C21.9834 18.8078 22.2735 18.615 23.1741 18.4179C24.0704 18.2252 24.6333 18.2808 24.984 18.2294C25.3434 18.1695 25.7808 18.1266 26.1618 18.1352C26.5428 18.1352 26.8763 18.2509 27.5171 18.3066C28.1579 18.3708 28.3528 18.5293 28.6689 18.6664C28.9936 18.8164 29.0932 18.9492 29.0716 19.1463C29.0456 19.3433 29.0716 23.8718 29.0716 23.8718C29.0716 23.8718 28.9893 23.9532 28.6602 23.9746M31.3145 20.9971C31.3145 20.9971 31.1196 21.3055 30.8295 21.8154C30.7516 21.3612 30.652 20.8471 30.6563 20.7829C30.6823 20.6629 30.6563 20.423 30.6563 20.046C30.6563 19.6689 30.8469 19.4762 30.9854 19.0777C31.124 18.6793 31.6999 18.4522 31.99 18.328C32.0549 18.3023 32.2108 18.2509 32.3494 18.2123C32.1199 19.6989 31.3188 20.9971 31.3188 20.9971M32.2584 16.4343C31.6739 16.4301 31.1673 16.4258 31.1067 16.4258C30.8772 16.4258 30.4095 16.4729 30.1151 16.58C29.825 16.6914 29.6215 16.7814 29.4656 16.7557C29.3054 16.7342 28.6689 16.5543 28.474 16.46C28.2705 16.3701 28.0194 16.3229 27.8375 16.3487C27.66 16.3701 27.6816 16.3701 27.5691 16.4515L27.3655 16.6186C27.3655 16.6186 27.0105 16.3444 26.8286 16.3915C26.5212 16.4643 25.928 16.4086 25.6119 16.4772C25.2915 16.5414 24.5034 16.6057 24.1873 16.6271C23.8756 16.6528 23.3949 16.5286 22.9533 16.4429C22.4986 16.3487 22.2085 16.3701 22.2085 16.3701L22.2302 15.8602C22.2518 15.7489 22.3168 15.7489 22.2951 15.4832C22.2778 15.2133 22.2518 15.0591 22.2302 14.6778C22.2129 14.2965 22.1436 14.0309 22.1912 13.7867C22.2388 13.5425 22.3471 12.917 22.6242 11.9787C22.8883 11.0319 23.0789 10.4792 23.1741 10.235C23.2607 9.98654 23.3083 9.72092 23.5552 9.76376C23.8106 9.81089 25.2482 10.1708 25.6119 10.2179C25.9713 10.2607 26.9369 10.5349 27.6383 10.7363C28.3311 10.9419 28.6645 11.2375 28.8897 11.3489C29.1235 11.4603 29.2058 11.4603 29.1885 11.6874C29.1668 11.9059 29.0932 12.5571 29.0239 12.8698C28.959 13.1783 29.1105 13.9195 29.1538 14.2108C29.2015 14.5021 29.5868 15.7146 29.5868 15.7146C29.5868 15.7146 29.8077 15.5089 29.9635 15.1533C30.1281 14.7935 30.1281 14.5964 30.3013 14.7078C30.4918 14.8192 30.8252 15.1105 30.8252 15.1105C30.8252 15.1105 30.8425 14.9991 30.8252 14.8363C30.8079 14.7378 30.8512 14.3179 30.8685 14.0137C31.2539 14.4764 31.964 15.4147 32.2628 16.4301M37.0258 12.7285C37.0258 12.7285 35.5406 13.204 34.3109 13.2254C33.4145 13.2426 32.4533 13.0155 32.4533 13.0155C32.4533 13.0155 31.7908 12.8698 31.3102 13.0841C31.137 13.1612 30.9681 13.3111 30.8382 13.4439C30.7559 13.1012 30.6347 12.5657 30.7603 12.1372C30.8425 11.8459 30.8425 11.7131 31.3665 11.2504C31.8861 10.7791 32.4013 10.6892 32.6525 10.6292C32.9036 10.5649 33.5055 10.5435 34.523 10.2564C35.5406 9.97369 35.7917 9.83231 35.7917 9.83231C35.7917 9.83231 35.9476 9.49385 36.1727 9.78947C36.333 9.99939 36.9738 11.2975 37.3765 12.6471C37.1557 12.6985 37.0258 12.7327 37.0258 12.7327M36.701 6.09216C35.848 3.95432 34.9387 3.12746 34.9387 3.12746C34.9387 3.12746 35.1639 2.90039 35.3197 2.789C35.4756 2.67761 35.6098 2.70332 35.6098 2.70332C35.6098 2.70332 36.1035 2.87897 37.7922 3.62871C39.4852 4.36989 39.9918 5.04252 40.178 5.17961C40.3555 5.31242 40.2646 5.46666 40.2646 5.46666C40.2646 5.46666 40.4031 5.37669 40.3815 5.62089C40.3555 5.86938 39.9918 6.22925 39.4722 6.44775C38.9526 6.67482 37.8052 7.07325 37.554 7.18036C37.3072 7.30032 37.0128 6.89331 36.701 6.09644M44.4084 16.3187C44.3564 16.1687 44.3001 16.0316 44.2439 15.9074C43.4991 14.3094 42.3863 13.5039 42.3863 13.5039C42.3863 13.5039 41.3254 12.5828 39.9572 12.4457C39.667 12.4157 39.3683 12.4114 39.0825 12.42C39.0479 12.36 38.7967 11.5631 38.7837 11.5289L38.6971 11.2847C38.6971 11.2847 38.5586 11.3961 38.5109 11.5674C38.5023 11.606 38.7145 12.3986 38.7015 12.4457C38.3681 12.4714 38.0606 12.5142 37.8008 12.5614C37.7748 12.4971 37.7532 12.4414 37.7445 12.4286C37.6493 12.1544 37.567 11.6874 37.541 11.5332C37.5194 11.3746 37.6146 11.2932 37.6363 11.1733L37.7748 10.7491C37.8138 10.6377 37.7965 10.6377 37.974 10.6806C38.1516 10.7277 38.407 10.7491 38.407 10.7491C38.407 10.7491 38.498 10.3464 38.3161 9.96941C38.1386 9.58811 38.0736 9.36104 38.0736 9.36104C38.0736 9.36104 38.0476 9.29678 38.3854 9.02687C38.7231 8.76553 39.6974 8.07148 40.126 7.79729C40.559 7.53595 40.5114 7.55737 40.8968 7.33031C41.2778 7.11609 41.5463 6.82477 41.5463 6.82477C41.5463 6.82477 42.3343 7.53595 43.0531 8.45706C43.7719 9.37818 44.8024 10.8091 44.915 10.7663C45.0319 10.7191 44.915 10.1879 45.0969 10.1622C45.2787 10.1408 45.5948 10.4321 45.7983 10.6377C45.9975 10.8348 46.1794 10.8648 46.1577 11.0148C46.1361 11.1733 46.2227 11.3918 46.0711 11.3746C45.9066 11.3489 45.8849 11.2375 45.7507 11.2375L45.4606 11.259L45.348 11.5503L45.4606 11.9359C45.4736 12.0644 45.5688 12.54 45.6727 12.8913C45.7897 13.2554 45.9715 14.0352 45.9932 14.2151C46.0148 14.3908 46.0365 15.1319 46.0538 15.3547C46.0754 15.5818 46.0365 16.1387 46.0365 16.1387L45.807 16.2501C45.6338 16.3358 45.4216 16.4729 45.2441 16.4515C45.0622 16.4301 44.7678 16.3358 44.482 16.3144C44.4777 16.3144 44.4517 16.3144 44.417 16.3144M46.4218 19.1077C46.4045 19.2834 46.253 19.6175 46.201 19.8403C46.0928 20.3844 45.9888 20.71 45.807 21.2456L45.742 21.2113C45.742 21.2113 45.5429 20.7571 45.2397 19.5875C45.1012 19.0606 44.9496 18.3023 44.7678 17.5739C44.9843 17.514 45.2701 17.4197 45.4779 17.3854C46.3352 17.2569 46.2919 16.9742 46.2919 16.9742C46.2919 16.9742 46.3699 17.2098 46.2486 17.5654C46.1274 17.921 46.1837 18.3965 46.3006 18.5508C46.4218 18.7093 46.4478 18.9321 46.4218 19.1077Z" fill="white"/>
<path d="M9.89836 36.549C9.65588 36.549 9.4567 36.7417 9.4567 36.9817V39.9335H7.33067C7.06655 39.9335 6.86737 40.0792 6.7851 40.2591L6.39973 40.9746V36.549H4.15679C3.91431 36.549 3.71946 36.7417 3.71946 36.9817V45.9957H5.9624C6.20488 45.9957 6.39973 45.7986 6.39973 45.5587V42.2513H9.46103V45.9957H11.704C11.9464 45.9957 12.1413 45.7986 12.1413 45.5587V36.549H9.89836Z" fill="white"/>
<path d="M19.2728 36.549C19.0303 36.549 18.8311 36.7417 18.8311 36.9817V39.9335H16.7051C16.441 39.9335 16.2418 40.0792 16.1595 40.2591L15.7742 40.9746V36.549H13.5312C13.2887 36.549 13.0896 36.7417 13.0896 36.9817V45.9957H15.3325C15.575 45.9957 15.7698 45.7986 15.7698 45.5587V42.2513H18.8311V45.9957H21.0741C21.3165 45.9957 21.5114 45.7986 21.5114 45.5587V36.549H19.2685H19.2728Z" fill="white"/>
<path d="M2.77985 45.5673C2.77985 45.8072 2.58067 46 2.3382 46H0V39.3294C0 39.0895 0.16454 38.9524 0.437329 38.8924L2.77985 38.6311V45.5673Z" fill="white"/>
<path d="M0 36.9817C0 36.7417 0.19485 36.549 0.437329 36.549H2.77985V37.6843C2.77985 37.9242 2.62397 38.0484 2.34253 38.1213L0 38.3783V36.9817Z" fill="white"/>
<path fill-rule="evenodd" clip-rule="evenodd" d="M14.4838 35.0795L15.3065 35.2894L15.2113 35.9706L14.4535 35.9363L14.4838 35.0795Z" fill="white"/>
<path d="M3.86668 35.1523C3.46832 35.3751 2.90109 35.5079 2.3382 35.5079C0.848678 35.5079 0.00433016 34.5482 0.00433016 32.9288C0.00433016 31.3094 0.831358 30.324 2.36851 30.324C2.80583 30.324 3.21285 30.4182 3.58956 30.611L3.2778 31.6949C3.03099 31.5878 2.76253 31.5321 2.47675 31.5321C1.67571 31.5321 1.33797 31.9434 1.33797 32.9245C1.33797 33.8371 1.69736 34.2741 2.44644 34.2741C2.55902 34.2741 2.67593 34.2526 2.76686 34.2141V33.5286H2.1217V32.6332H3.87534V35.148L3.86668 35.1523ZM7.72903 34.2998V35.4394H4.30834V30.4011H7.62078V31.5236H5.59868V32.3376H7.43026V33.4129H5.59868V34.2955H7.7247L7.72903 34.2998ZM8.02347 30.4011H9.35278L11.193 33.263C11.1757 33.0659 11.1757 32.8945 11.1757 32.7317V30.4011H12.4011V35.4394H11.0718L9.23154 32.5861C9.24886 32.7831 9.24886 32.9802 9.24886 33.1216V35.4394H8.02347V30.4011ZM12.7821 32.9202C12.7821 31.2408 13.6092 30.3283 15.1463 30.3283C15.5663 30.3283 15.9863 30.4182 16.3241 30.5896L16.008 31.6735C15.7958 31.5878 15.523 31.5364 15.2502 31.5364C14.4492 31.5364 14.1114 31.9477 14.1114 32.9074C14.1114 33.8156 14.4882 34.2783 15.2416 34.2783C15.5577 34.2783 15.8694 34.2184 16.0989 34.1155L16.415 35.208C16.0469 35.3965 15.575 35.5079 15.0684 35.5079C13.6048 35.5079 12.7821 34.5954 12.7821 32.9159V32.9202Z" fill="white"/>
</g>
<defs>
<clipPath id="clip0_18_441">
<rect width="57" height="46" fill="white"/>
</clipPath>
</defs>
</svg>
