<svg width="28" height="28" viewBox="0 0 28 28" fill="none" xmlns="http://www.w3.org/2000/svg">
<path d="M18.039 13.4023C18.165 14.2519 18.0199 15.1196 17.6243 15.882C17.2287 16.6443 16.6028 17.2625 15.8357 17.6487C15.0685 18.0348 14.1991 18.1692 13.3511 18.0328C12.5032 17.8963 11.7198 17.496 11.1125 16.8887C10.5052 16.2813 10.1048 15.498 9.96837 14.65C9.83192 13.8021 9.96632 12.9327 10.3525 12.1655C10.7386 11.3983 11.3568 10.7724 12.1192 10.3768C12.8815 9.98127 13.7492 9.83616 14.5988 9.96214C15.4654 10.0906 16.2677 10.4945 16.8872 11.114C17.5067 11.7334 17.9105 12.5357 18.039 13.4023Z" stroke="#EEEBF0" stroke-width="1.5" stroke-linecap="round" stroke-linejoin="round"/>
<path d="M19.8335 7.58203H20.4168" stroke="#EEEBF0" stroke-width="1.5" stroke-linecap="round" stroke-linejoin="round"/>
<path d="M3.5 10.9667C3.5 8.35309 3.5 7.0463 4.00864 6.04804C4.45605 5.16995 5.16995 4.45605 6.04804 4.00864C7.0463 3.5 8.35309 3.5 10.9667 3.5H17.0333C19.6469 3.5 20.9537 3.5 21.952 4.00864C22.83 4.45605 23.544 5.16995 23.9914 6.04804C24.5 7.0463 24.5 8.35309 24.5 10.9667V17.0333C24.5 19.6469 24.5 20.9537 23.9914 21.952C23.544 22.83 22.83 23.544 21.952 23.9914C20.9537 24.5 19.6469 24.5 17.0333 24.5H10.9667C8.35309 24.5 7.0463 24.5 6.04804 23.9914C5.16995 23.544 4.45605 22.83 4.00864 21.952C3.5 20.9537 3.5 19.6469 3.5 17.0333V10.9667Z" stroke="#EEEBF0" stroke-width="1.5" stroke-linecap="round" stroke-linejoin="round"/>
</svg>
