<svg
                  width="161"
                  height="52"
                  viewBox="0 0 161 52"
                  fill="none"
                  xmlns="http://www.w3.org/2000/svg"
                >
                  <g clip-path="url(#clip0_18_432)">
                    <path
                      d="M0 5.26991C0 3.78693 0.500332 2.53696 1.49945 1.52156C2.49856 0.507701 3.82142 0 5.46647 0C7.11153 0 8.43439 0.507701 9.4335 1.5231C10.4326 2.53851 10.9329 3.78693 10.9329 5.27145C10.9329 6.75597 10.4326 8.00439 9.4335 9.0198C8.43439 10.0352 7.11153 10.5429 5.46647 10.5429C3.82142 10.5429 2.49856 10.0367 1.49945 9.0198C0.500332 8.00285 0 6.75443 0 5.26991ZM10.4636 41.5759C10.0314 41.6531 9.39478 41.7611 8.55366 41.8985C7.711 42.0343 6.85749 42.1037 5.99624 42.1037C5.13499 42.1037 4.35893 42.0451 3.67426 41.9278C2.98805 41.8105 2.41027 41.5759 1.94092 41.2256C1.47002 40.8738 1.10755 40.397 0.853507 39.7905C0.59792 39.1856 0.470901 38.3955 0.470901 37.4186V13.586C0.901527 13.5089 1.53817 13.4008 2.38084 13.2635C3.2235 13.1277 4.07546 13.0583 4.93826 13.0583C5.80106 13.0583 6.57402 13.1169 7.26023 13.2342C7.9449 13.3515 8.52423 13.586 8.99358 13.9363C9.46293 14.2866 9.8254 14.7665 10.081 15.3715C10.335 15.9764 10.4636 16.768 10.4636 17.7433V41.5759Z"
                      fill="white"
                    />
                    <path
                      d="M21.2788 34.374C20.8466 33.3988 20.3866 32.3047 19.8971 31.0948C19.4061 29.885 18.898 28.4992 18.3682 26.9375C17.8385 25.3758 17.2901 23.5904 16.7216 21.5797C16.1531 19.5689 15.5552 17.2557 14.9294 14.6401C15.4778 14.0938 16.212 13.6154 17.1337 13.2049C18.0538 12.7944 19.0637 12.5907 20.1604 12.5907C21.5313 12.5907 22.6683 12.8747 23.5698 13.4395C24.4713 14.0058 25.1374 15.0706 25.568 16.6307L30.212 32.7337H30.4474C30.9183 31.4065 31.3784 29.9621 31.8292 28.4004C32.2799 26.8388 32.7199 25.2292 33.152 23.5688C33.5827 21.9099 33.9838 20.251 34.3572 18.5906C34.7289 16.9317 35.0527 15.3021 35.3268 13.7003C36.738 12.9595 38.2855 12.5876 39.9708 12.5876C41.3417 12.5876 42.4786 12.8808 43.3802 13.4657C44.2817 14.0506 44.7325 15.0675 44.7325 16.5104C44.7325 17.5644 44.5946 18.785 44.3204 20.1708C44.0462 21.5565 43.6838 23.0302 43.233 24.5919C42.7823 26.1536 42.2525 27.7647 41.6453 29.4236C41.0365 31.084 40.4014 32.7136 39.7353 34.3139C39.0693 35.9157 38.3831 37.428 37.6783 38.8523C36.9734 40.2782 36.2872 41.5559 35.6212 42.6886C34.5229 44.6006 33.5052 46.1623 32.5649 47.3736C31.6247 48.5835 30.7232 49.5294 29.8604 50.2131C28.9976 50.8951 28.1363 51.3643 27.2735 51.6189C26.4107 51.872 25.5107 52.0001 24.5689 52.0001C22.9239 52.0001 21.5902 51.5109 20.5725 50.5356C19.5532 49.5588 18.946 48.2903 18.7508 46.7286C20.004 45.7518 21.2587 44.6685 22.5134 43.4787C23.7665 42.2874 24.9035 41.0683 25.9228 39.8183C25.2567 39.6239 24.541 39.1656 23.7774 38.4418C23.0137 37.7196 22.1803 36.3632 21.2788 34.3725V34.374Z"
                      fill="white"
                    />
                    <path
                      d="M48.9644 5.26986C48.9644 3.78688 49.4647 2.53692 50.4638 1.52152C51.4629 0.506114 52.7858 -0.00158691 54.4309 -0.00158691C56.0759 -0.00158691 57.3988 0.506114 58.3979 1.52152C59.397 2.53692 59.8973 3.78534 59.8973 5.26986C59.8973 6.75439 59.397 8.00281 58.3979 9.01821C57.3988 10.0336 56.0759 10.5413 54.4309 10.5413C52.7858 10.5413 51.4629 10.0352 50.4638 9.01821C49.4647 8.00281 48.9644 6.75439 48.9644 5.26986ZM59.4264 41.5759C58.9943 41.653 58.3576 41.7611 57.5165 41.8984C56.6738 42.0342 55.8203 42.1036 54.9591 42.1036C54.0978 42.1036 53.3218 42.045 52.6371 41.9277C51.9509 41.8105 51.3731 41.5759 50.9037 41.2256C50.4328 40.8737 50.0704 40.3969 49.8163 39.7904C49.5607 39.1855 49.4337 38.3954 49.4337 37.4186V13.586C49.8644 13.5088 50.501 13.4008 51.3437 13.2635C52.1863 13.1277 53.0383 13.0582 53.9011 13.0582C54.7639 13.0582 55.5368 13.1169 56.2231 13.2341C56.9077 13.3514 57.4871 13.586 57.9564 13.9363C58.4258 14.2866 58.7882 14.7665 59.0438 15.3714C59.2979 15.9763 59.4264 16.768 59.4264 17.7433V41.5759Z"
                      fill="white"
                    />
                    <path
                      d="M75.9436 41.5759C75.5114 41.6531 74.8748 41.7611 74.0336 41.8984C73.191 42.0342 72.3375 42.1037 71.4762 42.1037C70.615 42.1037 69.8389 42.045 69.1542 41.9278C68.468 41.8105 67.8902 41.5759 67.4209 41.2256C66.95 40.8738 66.5875 40.3969 66.3335 39.7905C66.0779 39.1856 65.9509 38.3954 65.9509 37.4186V3.45513C66.3815 3.37797 67.0181 3.26995 67.8608 3.13261C68.7035 2.99681 69.5554 2.92737 70.4182 2.92737C71.281 2.92737 72.054 2.98601 72.7402 3.10329C73.4249 3.22057 74.0042 3.45513 74.4736 3.80543C74.9445 4.15727 75.3054 4.63565 75.561 5.24057C75.815 5.84703 75.9436 6.63713 75.9436 7.61241V41.5759Z"
                      fill="white"
                    />
                    <path
                      d="M81.9987 5.26986C81.9987 3.78688 82.499 2.53692 83.4981 1.52152C84.4972 0.506114 85.8201 -0.00158691 87.4652 -0.00158691C89.1102 -0.00158691 90.4331 0.506114 91.4322 1.52152C92.4313 2.53692 92.9316 3.78534 92.9316 5.26986C92.9316 6.75439 92.4313 8.00281 91.4322 9.01821C90.4331 10.0336 89.1102 10.5413 87.4652 10.5413C85.8201 10.5413 84.4972 10.0352 83.4981 9.01821C82.499 8.00281 81.9987 6.75439 81.9987 5.26986ZM92.4607 41.5759C92.0286 41.653 91.3919 41.7611 90.5508 41.8984C89.7081 42.0342 88.8546 42.1036 87.9934 42.1036C87.1321 42.1036 86.3561 42.045 85.6714 41.9277C84.9852 41.8105 84.4074 41.5759 83.938 41.2256C83.4671 40.8737 83.1047 40.3969 82.8506 39.7904C82.595 39.1855 82.468 38.3954 82.468 37.4186V13.586C82.8987 13.5088 83.5353 13.4008 84.378 13.2635C85.2206 13.1277 86.0726 13.0582 86.9354 13.0582C87.7982 13.0582 88.5711 13.1169 89.2574 13.2341C89.942 13.3514 90.5214 13.586 90.9907 13.9363C91.4601 14.2866 91.8225 14.7665 92.0781 15.3714C92.3322 15.9763 92.4607 16.768 92.4607 17.7433V41.5759Z"
                      fill="white"
                    />
                    <path
                      d="M116.913 23.5997C116.913 22.3898 116.57 21.501 115.885 20.9346C115.199 20.3698 114.268 20.0859 113.094 20.0859C112.31 20.0859 111.535 20.1831 110.772 20.3791C110.008 20.5751 109.351 20.8683 108.803 21.2571V41.5775C108.411 41.6948 107.793 41.8121 106.952 41.9294C106.109 42.0466 105.237 42.1053 104.335 42.1053C103.434 42.1053 102.698 42.0466 102.013 41.9294C101.327 41.8121 100.75 41.5775 100.28 41.2272C99.8092 40.8754 99.4468 40.3985 99.1927 39.7921C98.9371 39.1872 98.8101 38.3971 98.8101 37.4202V19.8529C98.8101 18.7989 99.0347 17.9409 99.4855 17.2758C99.9363 16.6122 100.553 16.0073 101.337 15.461C102.669 14.5243 104.343 13.7635 106.362 13.1771C108.38 12.5923 110.623 12.2991 113.092 12.2991C117.519 12.2991 120.929 13.2651 123.32 15.1971C125.71 17.1292 126.906 19.8143 126.906 23.2494V41.5775C126.514 41.6948 125.896 41.8121 125.055 41.9294C124.212 42.0466 123.34 42.1053 122.439 42.1053C121.537 42.1053 120.802 42.0466 120.117 41.9294C119.431 41.8121 118.853 41.5775 118.383 41.2272C117.913 40.8754 117.55 40.3985 117.296 39.7921C117.04 39.1872 116.913 38.3971 116.913 37.4202V23.5997Z"
                      fill="#4EA15C"
                    />
                    <path
                      d="M161 36.4819C160.803 38.3167 160.266 39.7226 159.383 40.6979C158.501 41.6731 157.217 42.1623 155.532 42.1623C154.277 42.1623 153.16 41.8599 152.181 41.2549C151.201 40.65 150.143 39.6254 149.008 38.181L143.188 30.9204V41.5775C142.756 41.6546 142.119 41.7626 141.278 41.9C140.435 42.0358 139.582 42.1052 138.721 42.1052C137.859 42.1052 137.083 42.0466 136.399 41.9293C135.712 41.812 135.135 41.5775 134.665 41.2272C134.194 40.8753 133.832 40.3985 133.578 39.792C133.322 39.1871 133.195 38.397 133.195 37.4202V3.51377C133.626 3.39649 134.262 3.26995 135.105 3.13261C135.948 2.99681 136.8 2.92737 137.663 2.92737C138.525 2.92737 139.298 2.98601 139.985 3.10329C140.669 3.22057 141.249 3.45513 141.718 3.80543C142.189 4.15727 142.55 4.63565 142.805 5.24057C143.059 5.84703 143.188 6.63714 143.188 7.61241V23.0718L153.298 12.765C155.335 12.765 156.973 13.2141 158.207 14.1122C159.442 15.0103 160.058 16.143 160.058 17.5087C160.058 18.0936 159.961 18.6306 159.764 19.1198C159.567 19.609 159.264 20.1059 158.853 20.6136C158.441 21.1213 157.913 21.6583 157.265 22.2246C156.619 22.791 155.863 23.4453 155.002 24.186L151.593 27.1134L160.998 36.4835L161 36.4819Z"
                      fill="white"
                    />
                  </g>
                  <defs>
                    <clipPath id="clip0_18_432">
                      <rect width="161" height="52" fill="white" />
                    </clipPath>
                  </defs>
                </svg>