<svg width="210" height="57" viewBox="0 0 210 57" fill="none" xmlns="http://www.w3.org/2000/svg">
<path d="M82.0013 12.3384C82.0013 11.1474 82.3991 10.1436 83.1934 9.32816C83.9877 8.51271 85.0394 8.10498 86.3473 8.10498C87.6552 8.10498 88.7069 8.51271 89.5012 9.32816C90.2956 10.1436 90.6934 11.1462 90.6934 12.3384C90.6934 13.5306 90.2956 14.5332 89.5012 15.3486C88.7069 16.1641 87.6552 16.5718 86.3473 16.5718C85.0394 16.5718 83.9877 16.1653 83.1934 15.3486C82.3991 14.5332 82.0013 13.5306 82.0013 12.3384ZM90.3202 41.4952C89.9766 41.5572 89.4705 41.6439 88.8017 41.7542C88.1318 41.8633 87.4532 41.9191 86.7685 41.9191C86.0838 41.9191 85.4668 41.872 84.9225 41.7778C84.3769 41.6836 83.9175 41.4952 83.5444 41.2139C83.17 40.9313 82.8818 40.5484 82.6799 40.0614C82.4766 39.5756 82.3757 38.941 82.3757 38.1566V19.0169C82.718 18.955 83.2242 18.8682 83.8941 18.7579C84.5641 18.6489 85.2414 18.5931 85.9274 18.5931C86.6133 18.5931 87.2279 18.6402 87.7734 18.7344C88.3177 18.8286 88.7783 19.0169 89.1515 19.2983C89.5246 19.5796 89.8128 19.965 90.016 20.4508C90.218 20.9366 90.3202 21.5724 90.3202 22.3556V41.4952Z" fill="#0F2728"/>
<path d="M98.9187 35.7102C98.5751 34.927 98.2093 34.0483 97.8202 33.0767C97.4298 32.1051 97.0258 30.9922 96.6046 29.738C96.1835 28.4839 95.7475 27.05 95.2955 25.4352C94.8436 23.8204 94.3682 21.9627 93.8707 19.8621C94.3066 19.4234 94.8904 19.0392 95.6231 18.7096C96.3546 18.3799 97.1576 18.2163 98.0295 18.2163C99.1194 18.2163 100.023 18.4444 100.74 18.898C101.457 19.3528 101.986 20.2079 102.329 21.4608L106.021 34.3928H106.208C106.582 33.327 106.948 32.1671 107.307 30.9129C107.665 29.6587 108.015 28.3661 108.358 27.0327C108.701 25.7004 109.02 24.3682 109.316 23.0347C109.612 21.7025 109.869 20.3938 110.087 19.1074C111.209 18.5125 112.44 18.2139 113.779 18.2139C114.869 18.2139 115.773 18.4493 116.49 18.919C117.207 19.3887 117.565 20.2054 117.565 21.3641C117.565 22.2106 117.456 23.1909 117.238 24.3037C117.02 25.4166 116.731 26.6002 116.373 27.8543C116.015 29.1085 115.593 30.4023 115.111 31.7345C114.627 33.068 114.122 34.3767 113.592 35.6619C113.063 36.9482 112.517 38.1628 111.957 39.3066C111.396 40.4517 110.851 41.4779 110.321 42.3875C109.448 43.923 108.639 45.1771 107.892 46.15C107.144 47.1216 106.427 47.8813 105.741 48.4303C105.055 48.9781 104.371 49.3548 103.685 49.5593C102.999 49.7625 102.283 49.8654 101.534 49.8654C100.227 49.8654 99.1662 49.4725 98.3571 48.6893C97.5468 47.9048 97.064 46.8861 96.9088 45.632C97.9051 44.8475 98.9027 43.9775 99.9002 43.022C100.896 42.0653 101.8 41.0862 102.611 40.0824C102.081 39.9263 101.512 39.5582 100.905 38.977C100.298 38.397 99.6354 37.3076 98.9187 35.709V35.7102Z" fill="#0F2728"/>
<path d="M120.93 12.3384C120.93 11.1474 121.327 10.1436 122.122 9.32816C122.916 8.51271 123.968 8.10498 125.276 8.10498C126.584 8.10498 127.635 8.51271 128.43 9.32816C129.224 10.1436 129.622 11.1462 129.622 12.3384C129.622 13.5306 129.224 14.5332 128.43 15.3486C127.635 16.1641 126.584 16.5718 125.276 16.5718C123.968 16.5718 122.916 16.1653 122.122 15.3486C121.327 14.5332 120.93 13.5306 120.93 12.3384ZM129.247 41.4952C128.904 41.5572 128.398 41.6439 127.729 41.7542C127.059 41.8633 126.38 41.9191 125.696 41.9191C125.011 41.9191 124.394 41.872 123.85 41.7778C123.304 41.6836 122.845 41.4952 122.471 41.2139C122.097 40.9313 121.809 40.5484 121.607 40.0614C121.404 39.5756 121.303 38.941 121.303 38.1566V19.0169C121.645 18.955 122.151 18.8682 122.821 18.7579C123.491 18.6489 124.169 18.5931 124.854 18.5931C125.54 18.5931 126.155 18.6402 126.701 18.7344C127.245 18.8286 127.705 19.0169 128.079 19.2983C128.452 19.5796 128.74 19.965 128.943 20.4508C129.145 20.9366 129.247 21.5724 129.247 22.3556V41.4952Z" fill="#0F2728"/>
<path d="M142.379 41.4952C142.035 41.5572 141.529 41.644 140.861 41.7543C140.191 41.8633 139.512 41.9191 138.827 41.9191C138.143 41.9191 137.526 41.872 136.981 41.7778C136.436 41.6836 135.976 41.4952 135.603 41.2139C135.229 40.9314 134.941 40.5484 134.739 40.0614C134.535 39.5756 134.434 38.9411 134.434 38.1566V10.8798C134.777 10.8178 135.283 10.7311 135.953 10.6208C136.623 10.5117 137.3 10.4559 137.986 10.4559C138.672 10.4559 139.287 10.503 139.832 10.5972C140.377 10.6914 140.837 10.8798 141.21 11.1611C141.585 11.4436 141.872 11.8278 142.075 12.3136C142.277 12.8007 142.379 13.4352 142.379 14.2184V41.494V41.4952Z" fill="#0F2728"/>
<path d="M147.193 12.3384C147.193 11.1474 147.591 10.1436 148.385 9.32816C149.179 8.51271 150.231 8.10498 151.539 8.10498C152.847 8.10498 153.899 8.51271 154.693 9.32816C155.487 10.1436 155.885 11.1462 155.885 12.3384C155.885 13.5306 155.487 14.5332 154.693 15.3486C153.899 16.1641 152.847 16.5718 151.539 16.5718C150.231 16.5718 149.179 16.1653 148.385 15.3486C147.591 14.5332 147.193 13.5306 147.193 12.3384ZM155.511 41.4952C155.167 41.5572 154.661 41.6439 153.992 41.7542C153.322 41.8633 152.644 41.9191 151.959 41.9191C151.274 41.9191 150.657 41.872 150.113 41.7778C149.567 41.6836 149.108 41.4952 148.735 41.2139C148.361 40.9313 148.072 40.5484 147.87 40.0614C147.667 39.5756 147.566 38.941 147.566 38.1566V19.0169C147.909 18.955 148.415 18.8682 149.085 18.7579C149.755 18.6489 150.432 18.5931 151.118 18.5931C151.804 18.5931 152.418 18.6402 152.964 18.7344C153.508 18.8286 153.969 19.0169 154.342 19.2983C154.715 19.5796 155.003 19.965 155.207 20.4508C155.409 20.9366 155.511 21.5724 155.511 22.3556V41.4952Z" fill="#0F2728"/>
<path d="M174.951 27.0575C174.951 26.0859 174.678 25.3721 174.134 24.9173C173.588 24.4637 172.848 24.2356 171.915 24.2356C171.291 24.2356 170.676 24.3137 170.069 24.4711C169.461 24.6285 168.939 24.864 168.503 25.1763V41.4953C168.192 41.5894 167.7 41.6836 167.032 41.7778C166.362 41.872 165.668 41.9191 164.952 41.9191C164.235 41.9191 163.65 41.872 163.106 41.7778C162.56 41.6836 162.101 41.4953 161.727 41.2139C161.353 40.9314 161.065 40.5484 160.863 40.0614C160.66 39.5756 160.559 38.9411 160.559 38.1566V24.0485C160.559 23.2021 160.737 22.513 161.096 21.9789C161.454 21.446 161.944 20.9602 162.567 20.5215C163.626 19.7692 164.958 19.1583 166.562 18.6873C168.167 18.2176 169.95 17.9822 171.913 17.9822C175.433 17.9822 178.144 18.758 180.045 20.3096C181.945 21.8612 182.896 24.0175 182.896 26.7762V41.4953C182.584 41.5894 182.093 41.6836 181.424 41.7778C180.754 41.872 180.061 41.9191 179.344 41.9191C178.628 41.9191 178.043 41.872 177.498 41.7778C176.953 41.6836 176.493 41.4953 176.12 41.2139C175.746 40.9314 175.458 40.5484 175.256 40.0614C175.052 39.5756 174.951 38.9411 174.951 38.1566V27.0575Z" fill="#4EA15C"/>
<path d="M210.001 37.4043C209.844 38.8779 209.417 40.0069 208.715 40.7901C208.014 41.5733 206.993 41.9662 205.653 41.9662C204.656 41.9662 203.768 41.7233 202.989 41.2375C202.21 40.7517 201.369 39.9288 200.466 38.7688L195.839 32.9379V41.4965C195.496 41.5584 194.99 41.6452 194.321 41.7555C193.651 41.8645 192.972 41.9203 192.288 41.9203C191.603 41.9203 190.986 41.8732 190.442 41.779C189.896 41.6849 189.437 41.4965 189.063 41.2152C188.689 40.9326 188.401 40.5497 188.199 40.0626C187.996 39.5768 187.895 38.9423 187.895 38.1578V10.9269C188.237 10.8327 188.743 10.7311 189.413 10.6208C190.083 10.5117 190.761 10.4559 191.446 10.4559C192.132 10.4559 192.747 10.503 193.293 10.5972C193.837 10.6914 194.297 10.8798 194.671 11.1611C195.045 11.4436 195.332 11.8278 195.535 12.3136C195.737 12.8007 195.839 13.4352 195.839 14.2184V26.6337L203.877 18.3564C205.497 18.3564 206.799 18.7171 207.78 19.4383C208.762 20.1596 209.252 21.0692 209.252 22.166C209.252 22.6357 209.174 23.067 209.018 23.4598C208.861 23.8527 208.62 24.2517 208.294 24.6595C207.966 25.0672 207.546 25.4985 207.031 25.9533C206.518 26.4081 205.917 26.9336 205.232 27.5284L202.522 29.8794L209.999 37.4043H210.001Z" fill="#0F2728"/>
<path d="M32.3708 56.3457C32.0432 56.3457 31.7157 56.2601 31.4225 56.0904C31.1036 55.9057 23.5334 51.4827 15.8549 44.8178C11.3032 40.8681 7.67022 36.9495 5.05694 33.1734C1.67395 28.2856 -0.0267748 23.585 0.000318655 19.2004C0.0323382 14.0994 1.8476 9.30213 5.11359 5.69207C8.43377 2.02129 12.8648 0 17.5901 0C23.6467 0 29.1836 3.41425 32.3708 8.82252C35.558 3.41425 41.0949 0 47.1515 0C51.6158 0 55.8756 1.82424 59.1465 5.13563C62.7352 8.77047 64.7746 13.9049 64.7413 19.2251C64.7142 23.6011 62.9815 28.2955 59.5911 33.1746C56.9692 36.9495 53.3411 40.8657 48.8079 44.814C41.1565 51.4777 33.6405 55.9007 33.324 56.0866C33.0297 56.2589 32.6996 56.3457 32.3708 56.3457Z" fill="#0F2728"/>
<path d="M24.8502 19.3603C24.5694 19.5908 24.2233 19.6862 23.8896 19.6528C23.5558 19.6193 23.2344 19.457 23.0053 19.1744L20.4561 16.0365C19.998 15.4726 20.0805 14.6423 20.6408 14.1801L23.1642 16.1642L24.8489 19.3591L24.8502 19.3603Z" fill="#62D781"/>
<path d="M20.2935 24.6904C20.1827 24.6792 20.0706 24.6532 19.961 24.6123L16.1938 23.1847C15.5165 22.9281 15.1741 22.1672 15.429 21.4856C15.6839 20.804 16.4401 20.4595 17.1174 20.716L20.8846 22.1436C21.562 22.4002 21.9043 23.1611 21.6494 23.8427C21.4351 24.414 20.8686 24.7486 20.2923 24.6904H20.2935Z" fill="#6CD37C"/>
<path d="M29.5102 17.1072C28.9339 17.049 28.445 16.6078 28.3477 16.0042L27.7061 12.0051C27.5903 11.2863 28.0768 10.6084 28.791 10.4919C29.5053 10.3754 30.179 10.8649 30.2947 11.5837L30.9363 15.5829C31.0521 16.3017 30.5657 16.9796 29.8514 17.0961C29.7356 17.1147 29.6211 17.1184 29.5102 17.1072Z" fill="#4CA15C"/>
<path d="M54.0396 55.291C52.5064 56.5526 50.2699 56.4659 48.8377 55.089L45.8525 52.2176L42.6579 56.5043C42.0372 57.3941 40.5483 57.0112 40.4227 55.9367L37.5582 36.7141C37.4929 36.2753 37.6616 35.8354 38.0028 35.5541L47.7429 43.1435L54.0372 55.291H54.0396Z" fill="#4EA15C"/>
<path d="M57.4842 44.3084L52.6739 46.6073L54.8771 50.1219C55.9337 51.8073 55.5729 54.0306 54.0396 55.2922L38.0052 35.5553C38.3464 35.2752 38.8082 35.1959 39.222 35.3471L57.3758 41.9934C58.3992 42.3305 58.4719 43.8784 57.4842 44.3109V44.3084Z" fill="#62D781"/>
<path d="M24.8501 19.3603L20.642 14.1801C21.2024 13.719 22.0275 13.8021 22.4868 14.366L25.0361 17.5038C25.4942 18.0677 25.4117 18.8981 24.8514 19.3603H24.8501Z" fill="#4EA15C"/>
<path d="M32.8834 29.2485L28.9191 32.5091C28.6383 32.7396 28.2923 32.8338 27.9585 32.8004C27.6248 32.7669 27.3034 32.6046 27.0743 32.3232C26.6162 31.7594 26.6999 30.929 27.259 30.4668L31.2233 27.205L33.0681 27.3908L32.8834 29.2473V29.2485Z" fill="#66D57F"/>
<path d="M26.259 39.5211C24.3711 39.3302 22.6691 38.4107 21.4684 36.9322C20.2677 35.4537 19.711 33.5935 19.9007 31.6925C20.0916 29.7914 21.0041 28.0812 22.4721 26.8729L25.3144 24.5343C25.8748 24.0733 26.7011 24.1563 27.1593 24.7202C27.6174 25.2841 27.5349 26.1157 26.9745 26.5767L24.1322 28.9152C23.2061 29.6774 22.6297 30.7568 22.509 31.9564C22.3896 33.1548 22.7406 34.3297 23.4979 35.2616C25.062 37.1875 27.8908 37.4725 29.8046 35.8986L32.6469 33.5613C33.2073 33.1003 34.0336 33.1833 34.4917 33.7472C34.9499 34.3111 34.8673 35.1427 34.307 35.6037L31.4647 37.941C29.9954 39.1493 28.1469 39.7094 26.259 39.5186V39.5211Z" fill="#60D27E"/>
<path d="M44.2047 24.7586C44.0138 26.6597 43.1013 28.3699 41.6333 29.5783L38.7909 31.9168C38.5101 32.1473 38.1641 32.2427 37.8303 32.208C37.4966 32.1733 37.1764 32.0122 36.9473 31.7297C36.4892 31.1658 36.5717 30.3355 37.1321 29.8732L39.9744 27.5347C40.8993 26.7725 41.4769 25.6931 41.5963 24.4934C41.7158 23.2938 41.3648 22.1202 40.6074 21.1882C39.0434 19.2624 36.2146 18.9774 34.3008 20.5513L31.4585 22.8898C30.8981 23.3508 30.073 23.2678 29.6136 22.7039C29.1543 22.14 29.238 21.3085 29.7984 20.8474L32.6407 18.5101C35.6727 16.0142 40.1579 16.4678 42.637 19.5202C43.8377 20.9986 44.3943 22.8588 44.2047 24.7586Z" fill="#4AA358"/>
<path d="M36.8452 25.9893L32.8834 29.2486L31.2233 27.205L35.1851 23.9457C35.7454 23.4847 36.5718 23.5677 37.0299 24.1316C37.488 24.6955 37.4055 25.5258 36.8452 25.988V25.9893Z" fill="#4CA15C"/>
</svg>
