<svg width="28" height="28" viewBox="0 0 28 28" fill="none" xmlns="http://www.w3.org/2000/svg">
<path d="M15.2612 12.4973L9.67751 4.669C9.61275 4.57805 9.52718 4.50391 9.42794 4.45276C9.3287 4.40162 9.21866 4.37496 9.10701 4.375H6.16001C6.03156 4.37516 5.90563 4.41067 5.79602 4.47763C5.6864 4.54458 5.59732 4.64041 5.53853 4.75462C5.47974 4.86882 5.45351 4.997 5.4627 5.12512C5.4719 5.25324 5.51618 5.37636 5.59068 5.481L12.7388 15.5027M15.2612 12.4973L22.4093 22.519C22.4838 22.6236 22.5281 22.7468 22.5373 22.8749C22.5465 23.003 22.5203 23.1312 22.4615 23.2454C22.4027 23.3596 22.3136 23.4554 22.204 23.5224C22.0944 23.5893 21.9685 23.6248 21.84 23.625H18.893C18.7814 23.625 18.6713 23.5984 18.5721 23.5472C18.4728 23.4961 18.3873 23.4219 18.3225 23.331L12.7388 15.5027M15.2612 12.4973L22.0768 4.375M12.7388 15.5027L5.92318 23.625" stroke="#EEEBF0" stroke-opacity="0.941176" stroke-width="1.5" stroke-linecap="round" stroke-linejoin="round"/>
</svg>

